<svg width="1920" height="1080" viewBox="0 0 1920 1080" fill="none"
    xmlns="http://www.w3.org/2000/svg">
    <rect width="1920" height="1080" fill="white" />
    <path
        d="M997.48 109.57H1034.89V154.57H997.54L997.62 215.89C997.62 218.09 999.4 219.87 1001.6 219.87H1034.9V264.87H1001.35C973.86 264.87 951.58 242.41 951.58 214.92V80H997.45L997.49 109.57H997.48ZM857.63 101.58C811.68 101.58 774.42 138.83 774.42 184.79C774.42 230.75 811.67 268 857.63 268C903.59 268 940.84 230.75 940.84 184.79C940.84 138.83 903.59 101.58 857.63 101.58ZM857.63 223.54C836.98 223.54 820.23 205.45 820.23 184.8C820.23 164.15 836.97 146.06 857.63 146.06C878.29 146.06 895.03 164.15 895.03 184.8C895.03 205.45 878.29 223.54 857.63 223.54ZM1121.88 101.58C1075.93 101.58 1038.67 138.83 1038.67 184.79C1038.67 230.75 1075.92 268 1121.88 268C1167.84 268 1205.09 230.75 1205.09 184.79C1205.09 138.83 1167.84 101.58 1121.88 101.58ZM1121.88 223.54C1101.23 223.54 1084.48 205.45 1084.48 184.8C1084.48 164.15 1101.22 146.06 1121.88 146.06C1142.54 146.06 1159.28 164.15 1159.28 184.8C1159.28 205.45 1142.54 223.54 1121.88 223.54ZM739.68 97.47C722.14 88.35 700.88 91.88 687.38 105.83L598.24 204.69C596.41 206.59 593.19 205.3 593.19 202.66V137C593.19 112.39 573.31 92.43 548.7 92.43C536.34 92.43 523.71 97.36 516.19 105.69L373 264.89H439.04L538.72 154.09C540.55 152.19 543.76 153.49 543.76 156.13V222.87C543.76 241.49 555.31 257.95 573 264.22C589.61 270.11 609.2 265.03 621.07 252.23L709.23 154.39C711.06 152.49 714.27 153.79 714.27 156.43V264.89H763.7V137.01C763.7 120.49 754.55 105.19 739.68 97.47ZM1487.52 92.45H1303.81C1256.27 92.45 1217.59 131.13 1217.59 178.67C1217.59 226.21 1256.27 264.89 1303.81 264.89H1447.92V213.1H1489.97C1522.04 211.81 1547.72 185.15 1547.72 152.77C1547.72 120.39 1520.71 92.44 1487.52 92.44V92.45ZM1378.84 144.24H1303.81C1284.82 144.24 1269.38 159.69 1269.38 178.67C1269.38 197.65 1284.83 213.1 1303.81 213.1H1344.03V196.02H1303.81C1294.24 196.02 1286.45 188.23 1286.45 178.66C1286.45 169.09 1294.24 161.3 1303.81 161.3H1378.84V247.8H1303.81C1265.68 247.8 1234.66 216.78 1234.66 178.65C1234.66 140.52 1265.68 109.5 1303.8 109.5H1378.84V144.21V144.24ZM1487.51 196.03H1430.83V247.82H1395.91V161.32H1487.51C1492.23 161.32 1496.05 157.5 1496.05 152.78C1496.05 148.06 1492.23 144.24 1487.51 144.24H1395.91V109.52H1487.51C1511.29 109.52 1530.64 128.99 1530.64 152.77C1530.64 176.55 1511.29 196.02 1487.51 196.02V196.03ZM1469.18 264.89H1472.33V250.84H1477.72V247.82H1463.82V250.84H1469.18V264.89ZM1480.89 264.89H1484.01V253.01L1487.89 259.52H1490.45L1494.35 252.86V264.88H1497.47V247.81H1494.18L1489.21 256.22L1484.19 247.81H1480.9V264.88L1480.89 264.89Z"
        fill="black" />
</svg>