<svg width="456" height="169" viewBox="0 0 456 169" fill="none" xmlns="http://www.w3.org/2000/svg">
<path d="M300.856 136C267.192 136 247.096 114.88 247.096 84.8C247.096 54.72 267.192 33.6 300.856 33.6H343.096V39.104H300.856C270.392 39.104 252.728 57.792 252.728 84.8C252.728 111.936 270.392 130.496 300.856 130.496H337.464V82.496H292.28V76.992H343.096V136H300.856ZM300.344 126.016C273.592 126.016 258.232 108.48 258.232 84.8C258.232 60.992 273.592 43.584 300.344 43.584H343.096V49.088H300.344C276.792 49.088 263.992 63.936 263.992 84.8C263.992 105.664 276.792 120.512 300.344 120.512H326.328V92.608H292.28V87.104H331.96V126.016H300.344ZM358.692 136V33.6H418.468C439.332 33.6 452.9 44.48 452.9 63.168C452.9 81.728 439.332 92.608 418.468 92.608H375.588V136H369.828V87.104H418.468C436.388 87.104 447.268 78.528 447.268 63.168C447.268 47.68 436.388 39.104 418.468 39.104H364.324V136H358.692ZM369.828 82.496V43.584H417.956C432.036 43.584 441.764 50.368 441.764 62.912C441.764 75.712 432.036 82.496 417.956 82.496H369.828ZM417.956 76.992C428.836 76.992 436.004 72.512 436.004 62.912C436.004 53.568 428.836 49.088 417.956 49.088H375.588V76.992H417.956Z" fill="white"/>
<mask id="mask0_282_6" style="mask-type:alpha" maskUnits="userSpaceOnUse" x="0" y="27" width="231" height="109">
<rect y="27" width="231" height="109" fill="#D9D9D9"/>
</mask>
<g mask="url(#mask0_282_6)">
<path d="M369.461 43.6162H391.594V70.4247H369.497L369.544 106.956C369.544 108.266 370.597 109.327 371.899 109.327H391.6V136.135H371.751C355.487 136.135 342.305 122.755 342.305 106.378V26H369.444L369.467 43.6162H369.461ZM286.722 38.8562C259.536 38.8562 237.492 61.0477 237.492 88.4281C237.492 115.809 259.53 138 286.722 138C313.913 138 335.951 115.809 335.951 88.4281C335.951 61.0477 313.913 38.8562 286.722 38.8562ZM286.722 111.513C274.505 111.513 264.595 100.736 264.595 88.434C264.595 76.1319 274.499 65.3549 286.722 65.3549C298.945 65.3549 308.849 76.1319 308.849 88.434C308.849 100.736 298.945 111.513 286.722 111.513ZM443.06 38.8562C415.875 38.8562 393.831 61.0477 393.831 88.4281C393.831 115.809 415.869 138 443.06 138C470.251 138 492.29 115.809 492.29 88.4281C492.29 61.0477 470.251 38.8562 443.06 38.8562ZM443.06 111.513C430.843 111.513 420.933 100.736 420.933 88.434C420.933 76.1319 430.837 65.3549 443.06 65.3549C455.283 65.3549 465.187 76.1319 465.187 88.434C465.187 100.736 455.283 111.513 443.06 111.513ZM216.939 36.4077C206.562 30.9745 193.984 33.0774 185.997 41.3881L133.259 100.283C132.176 101.415 130.271 100.647 130.271 99.074V59.9574C130.271 45.2962 118.509 33.4051 103.949 33.4051C96.6369 33.4051 89.1646 36.3421 84.7156 41.3047L0 136.147H39.0713L98.045 70.1387C99.1277 69.0068 101.027 69.7813 101.027 71.354V111.114C101.027 122.207 107.86 132.013 118.326 135.748C128.153 139.257 139.743 136.231 146.766 128.605L198.924 70.3174C200.007 69.1855 201.906 69.96 201.906 71.5328V136.147H231.15V59.9634C231.15 50.1217 225.737 41.0068 216.939 36.4077ZM659.384 33.417H550.695C522.569 33.417 499.685 56.4604 499.685 84.7821C499.685 113.104 522.569 136.147 550.695 136.147H635.955V105.294H660.833C679.807 104.525 695 88.6425 695 69.3523C695 50.0621 679.02 33.4111 659.384 33.4111V33.417ZM595.085 64.2706H550.695C539.46 64.2706 530.326 73.4749 530.326 84.7821C530.326 96.0894 539.466 105.294 550.695 105.294H574.491V95.1183H550.695C545.034 95.1183 540.425 90.4774 540.425 84.7762C540.425 79.0749 545.034 74.434 550.695 74.434H595.085V125.966H550.695C528.137 125.966 509.784 107.486 509.784 84.7702C509.784 62.0545 528.137 43.5745 550.69 43.5745H595.085V64.2528V64.2706ZM659.378 95.1243H625.844V125.978H605.185V74.446H659.378C662.17 74.446 664.43 72.1702 664.43 69.3583C664.43 66.5464 662.17 64.2706 659.378 64.2706H605.185V43.5864H659.378C673.447 43.5864 684.895 55.1855 684.895 69.3523C684.895 83.5191 673.447 95.1183 659.378 95.1183V95.1243ZM648.533 136.147H650.397V127.777H653.586V125.978H645.362V127.777H648.533V136.147ZM655.461 136.147H657.307V129.07L659.603 132.948H661.117L663.425 128.98V136.141H665.271V125.972H663.324L660.384 130.982L657.414 125.972H655.467V136.141L655.461 136.147Z" fill="white"/>
</g>
</svg>
