<svg width="1920" height="1080" viewBox="0 0 1920 1080" fill="none" xmlns="http://www.w3.org/2000/svg">
<rect width="1920" height="1080" fill="white"/>
<path d="M997.48 229.57H1034.89V274.57H997.54L997.62 335.89C997.62 338.09 999.4 339.87 1001.6 339.87H1034.9V384.87H1001.35C973.86 384.87 951.58 362.41 951.58 334.92V200H997.45L997.49 229.57H997.48ZM857.63 221.58C811.68 221.58 774.42 258.83 774.42 304.79C774.42 350.75 811.67 388 857.63 388C903.59 388 940.84 350.75 940.84 304.79C940.84 258.83 903.59 221.58 857.63 221.58ZM857.63 343.54C836.98 343.54 820.23 325.45 820.23 304.8C820.23 284.15 836.97 266.06 857.63 266.06C878.29 266.06 895.03 284.15 895.03 304.8C895.03 325.45 878.29 343.54 857.63 343.54ZM1121.88 221.58C1075.93 221.58 1038.67 258.83 1038.67 304.79C1038.67 350.75 1075.92 388 1121.88 388C1167.84 388 1205.09 350.75 1205.09 304.79C1205.09 258.83 1167.84 221.58 1121.88 221.58ZM1121.88 343.54C1101.23 343.54 1084.48 325.45 1084.48 304.8C1084.48 284.15 1101.22 266.06 1121.88 266.06C1142.54 266.06 1159.28 284.15 1159.28 304.8C1159.28 325.45 1142.54 343.54 1121.88 343.54ZM739.68 217.47C722.14 208.35 700.88 211.88 687.38 225.83L598.24 324.69C596.41 326.59 593.19 325.3 593.19 322.66V257C593.19 232.39 573.31 212.43 548.7 212.43C536.34 212.43 523.71 217.36 516.19 225.69L373 384.89H439.04L538.72 274.09C540.55 272.19 543.76 273.49 543.76 276.13V342.87C543.76 361.49 555.31 377.95 573 384.22C589.61 390.11 609.2 385.03 621.07 372.23L709.23 274.39C711.06 272.49 714.27 273.79 714.27 276.43V384.89H763.7V257.01C763.7 240.49 754.55 225.19 739.68 217.47ZM1487.52 212.45H1303.81C1256.27 212.45 1217.59 251.13 1217.59 298.67C1217.59 346.21 1256.27 384.89 1303.81 384.89H1447.92V333.1H1489.97C1522.04 331.81 1547.72 305.15 1547.72 272.77C1547.72 240.39 1520.71 212.44 1487.52 212.44V212.45ZM1378.84 264.24H1303.81C1284.82 264.24 1269.38 279.69 1269.38 298.67C1269.38 317.65 1284.83 333.1 1303.81 333.1H1344.03V316.02H1303.81C1294.24 316.02 1286.45 308.23 1286.45 298.66C1286.45 289.09 1294.24 281.3 1303.81 281.3H1378.84V367.8H1303.81C1265.68 367.8 1234.66 336.78 1234.66 298.65C1234.66 260.52 1265.68 229.5 1303.8 229.5H1378.84V264.21V264.24ZM1487.51 316.03H1430.83V367.82H1395.91V281.32H1487.51C1492.23 281.32 1496.05 277.5 1496.05 272.78C1496.05 268.06 1492.23 264.24 1487.51 264.24H1395.91V229.52H1487.51C1511.29 229.52 1530.64 248.99 1530.64 272.77C1530.64 296.55 1511.29 316.02 1487.51 316.02V316.03ZM1469.18 384.89H1472.33V370.84H1477.72V367.82H1463.82V370.84H1469.18V384.89ZM1480.89 384.89H1484.01V373.01L1487.89 379.52H1490.45L1494.35 372.86V384.88H1497.47V367.81H1494.18L1489.21 376.22L1484.19 367.81H1480.9V384.88L1480.89 384.89Z" fill="black"/>
</svg>
