<svg width="1175" height="188" viewBox="0 0 1175 188" fill="none" xmlns="http://www.w3.org/2000/svg">
<g clip-path="url(#clip0_148_4)">
<path d="M624.48 29.57H661.89V74.57H624.54L624.62 135.89C624.62 138.09 626.4 139.87 628.6 139.87H661.9V184.87H628.35C600.86 184.87 578.58 162.41 578.58 134.92V0H624.45L624.49 29.57H624.48ZM484.63 21.58C438.68 21.58 401.42 58.83 401.42 104.79C401.42 150.75 438.67 188 484.63 188C530.59 188 567.84 150.75 567.84 104.79C567.84 58.83 530.59 21.58 484.63 21.58ZM484.63 143.54C463.98 143.54 447.23 125.45 447.23 104.8C447.23 84.15 463.97 66.06 484.63 66.06C505.29 66.06 522.03 84.15 522.03 104.8C522.03 125.45 505.29 143.54 484.63 143.54ZM748.88 21.58C702.93 21.58 665.67 58.83 665.67 104.79C665.67 150.75 702.92 188 748.88 188C794.84 188 832.09 150.75 832.09 104.79C832.09 58.83 794.84 21.58 748.88 21.58ZM748.88 143.54C728.23 143.54 711.48 125.45 711.48 104.8C711.48 84.15 728.22 66.06 748.88 66.06C769.54 66.06 786.28 84.15 786.28 104.8C786.28 125.45 769.54 143.54 748.88 143.54ZM366.68 17.47C349.14 8.35 327.88 11.88 314.38 25.83L225.24 124.69C223.41 126.59 220.19 125.3 220.19 122.66V57C220.19 32.39 200.31 12.43 175.7 12.43C163.34 12.43 150.71 17.36 143.19 25.69L0 184.89H66.04L165.72 74.09C167.55 72.19 170.76 73.49 170.76 76.13V142.87C170.76 161.49 182.31 177.95 200 184.22C216.61 190.11 236.2 185.03 248.07 172.23L336.23 74.39C338.06 72.49 341.27 73.79 341.27 76.43V184.89H390.7V57.01C390.7 40.49 381.55 25.19 366.68 17.47ZM1114.52 12.45H930.81C883.27 12.45 844.59 51.13 844.59 98.67C844.59 146.21 883.27 184.89 930.81 184.89H1074.92V133.1H1116.97C1149.04 131.81 1174.72 105.15 1174.72 72.77C1174.72 40.39 1147.71 12.44 1114.52 12.44V12.45ZM1005.84 64.24H930.81C911.82 64.24 896.38 79.69 896.38 98.67C896.38 117.65 911.83 133.1 930.81 133.1H971.03V116.02H930.81C921.24 116.02 913.45 108.23 913.45 98.66C913.45 89.09 921.24 81.3 930.81 81.3H1005.84V167.8H930.81C892.68 167.8 861.66 136.78 861.66 98.65C861.66 60.52 892.68 29.5 930.8 29.5H1005.84V64.21V64.24ZM1114.51 116.03H1057.83V167.82H1022.91V81.32H1114.51C1119.23 81.32 1123.05 77.5 1123.05 72.78C1123.05 68.06 1119.23 64.24 1114.51 64.24H1022.91V29.52H1114.51C1138.29 29.52 1157.64 48.99 1157.64 72.77C1157.64 96.55 1138.29 116.02 1114.51 116.02V116.03ZM1096.18 184.89H1099.33V170.84H1104.72V167.82H1090.82V170.84H1096.18V184.89ZM1107.89 184.89H1111.01V173.01L1114.89 179.52H1117.45L1121.35 172.86V184.88H1124.47V167.81H1121.18L1116.21 176.22L1111.19 167.81H1107.9V184.88L1107.89 184.89Z" fill="black"/>
</g>
<defs>
<clipPath id="clip0_148_4">
<rect width="1174.72" height="188" fill="white"/>
</clipPath>
</defs>
</svg>
